<?xml version="1.0" standalone="no"?>
<!DOCTYPE svg PUBLIC "-//W3C//DTD SVG 20010904//EN"
 "http://www.w3.org/TR/2001/REC-SVG-20010904/DTD/svg10.dtd">
<svg version="1.0" xmlns="http://www.w3.org/2000/svg"
 width="2944.000000pt" height="2944.000000pt" viewBox="0 0 2944.000000 2944.000000"
 preserveAspectRatio="xMidYMid meet">

<g transform="translate(0.000000,2944.000000) scale(0.100000,-0.100000)"
fill="#000000" stroke="none">
<path d="M8304 20140 c-200 -36 -417 -145 -639 -320 -182 -143 -453 -441 -652
-715 -352 -486 -749 -1195 -1104 -1972 l-74 -162 -35 4 c-19 2 -334 10 -700
16 -759 14 -710 18 -844 -72 -78 -52 -115 -93 -146 -161 -23 -51 -26 -138 -6
-176 85 -162 495 -256 1219 -278 119 -4 217 -9 217 -11 0 -19 -818 -1966 -940
-2238 -464 -1036 -929 -1970 -1242 -2495 -593 -997 -1252 -1590 -1967 -1771
-251 -64 -535 -77 -651 -30 -125 51 -284 188 -365 315 -75 117 -139 280 -185
473 -14 55 -35 76 -69 68 -34 -9 -59 -32 -81 -75 -32 -62 -37 -101 -28 -190
31 -291 176 -575 406 -792 122 -115 268 -199 422 -244 100 -29 415 -26 559 5
581 125 1152 530 1742 1237 136 163 379 489 494 664 257 390 694 1154 1355
2370 220 406 853 1661 1240 2460 78 162 145 298 149 302 8 9 500 98 1131 203
540 91 766 134 990 190 74 19 136 33 137 31 2 -1 -22 -43 -53 -92 -597 -950
-1196 -2083 -1374 -2599 -177 -516 -223 -949 -129 -1230 43 -127 81 -188 178
-286 160 -161 386 -263 673 -305 140 -20 414 -15 528 11 518 115 1106 504
1783 1179 75 75 137 133 137 129 0 -4 -7 -48 -16 -98 -23 -125 -23 -345 0
-453 31 -148 78 -265 163 -406 120 -200 260 -316 438 -361 95 -24 467 -21 596
5 521 106 1121 592 1843 1494 486 607 772 1072 867 1413 17 59 22 108 23 202
l1 123 185 79 c408 175 736 358 863 481 53 53 106 139 88 146 -4 1 -68 -27
-142 -62 -165 -80 -335 -146 -454 -177 -77 -20 -114 -24 -250 -24 -187 0 -230
11 -222 54 65 352 78 503 57 667 -48 388 -256 591 -636 623 -355 30 -710 -129
-1179 -528 -641 -546 -1581 -1736 -1949 -2469 -49 -97 -68 -122 -198 -262
-602 -646 -1295 -1153 -1863 -1363 -347 -128 -649 -128 -813 2 -100 79 -139
203 -129 409 14 303 83 531 282 939 162 332 183 367 762 1254 558 855 706
1061 2146 2997 l686 922 -14 46 c-45 150 -277 304 -458 304 -123 0 -289 -73
-462 -202 -126 -94 -410 -373 -557 -548 -331 -393 -715 -930 -1103 -1545 -76
-121 -143 -226 -149 -232 -16 -17 -501 -31 -1388 -38 -457 -4 -718 -3 -718 4
0 17 537 1038 668 1271 222 395 494 712 752 879 165 107 326 161 505 168 137
6 203 -4 291 -46 79 -37 125 -79 184 -166 83 -123 129 -148 222 -121 125 36
197 188 198 418 0 163 -38 256 -149 359 -203 190 -426 321 -648 380 -88 24
-312 34 -399 19z m5122 -4132 c165 -242 340 -442 452 -518 59 -40 61 -48 36
-167 -64 -309 -349 -775 -832 -1362 -589 -715 -1070 -1120 -1467 -1236 -120
-36 -271 -45 -343 -21 -107 36 -185 142 -218 296 -25 116 -23 332 4 442 81
328 320 759 713 1289 461 620 849 1033 1166 1240 143 93 277 147 370 148 l42
1 77 -112z"/>
<path d="M27599 17289 c-249 -26 -536 -164 -846 -406 -327 -255 -745 -688
-1142 -1183 -795 -991 -1203 -1744 -1262 -2329 -25 -254 28 -489 163 -718 103
-177 201 -279 323 -338 124 -61 167 -67 444 -63 226 4 254 7 343 31 542 145
1154 671 1909 1642 276 355 471 651 603 916 123 247 171 414 164 577 l-3 84
180 77 c524 226 832 409 925 549 25 38 39 82 26 82 -2 0 -64 -29 -137 -65
-165 -79 -335 -145 -454 -176 -77 -20 -114 -24 -250 -24 -187 0 -230 11 -222
54 83 451 87 635 16 857 -79 248 -279 404 -552 429 -127 12 -154 12 -228 4z
m-173 -1281 c166 -244 341 -444 453 -518 l52 -35 -6 -62 c-24 -257 -269 -704
-663 -1208 -657 -840 -1212 -1333 -1647 -1460 -120 -36 -271 -45 -343 -21
-107 36 -185 142 -218 296 -25 116 -23 332 4 442 82 333 321 762 729 1310 445
598 836 1013 1145 1215 150 98 279 151 375 152 l42 1 77 -112z"/>
<path d="M16658 16780 c-145 -30 -284 -118 -497 -314 -438 -401 -1126 -1293
-1906 -2466 -887 -1337 -1358 -2279 -1471 -2945 -20 -118 -22 -369 -4 -520 54
-460 244 -801 545 -984 85 -52 115 -55 186 -19 69 34 103 77 95 120 -3 14 -28
66 -56 115 -119 206 -199 408 -221 561 -9 65 -9 115 0 220 40 461 209 929 579
1607 176 321 314 532 433 658 l66 71 164 -166 c278 -280 417 -356 739 -402
281 -40 794 -51 1000 -21 562 81 1202 390 1905 917 274 206 422 333 636 547
213 214 324 346 458 546 229 342 361 683 402 1043 16 149 7 395 -20 501 -42
167 -131 322 -256 445 -173 172 -419 300 -688 358 -87 19 -132 22 -302 22
-228 0 -308 -13 -676 -105 -312 -78 -564 -177 -679 -266 l-45 -34 -7 91 c-14
195 -46 307 -109 375 -62 68 -120 77 -271 45z m1923 -538 c211 -56 341 -183
379 -369 21 -98 8 -421 -24 -584 -147 -774 -636 -1395 -1596 -2028 -489 -323
-893 -499 -1275 -556 -385 -57 -1012 53 -1262 223 -73 50 -108 90 -141 161
-21 46 -24 64 -20 135 4 73 10 93 50 177 84 171 272 431 517 713 502 580 1500
1579 1796 1799 228 169 649 308 1056 347 158 15 431 5 520 -18z"/>
<path d="M21805 16784 c-95 -17 -157 -44 -260 -114 -411 -277 -1041 -1036
-1900 -2290 -1040 -1517 -1603 -2597 -1725 -3313 -23 -134 -27 -345 -10 -505
50 -465 221 -790 523 -993 108 -72 147 -78 224 -33 53 31 83 69 83 106 0 17
-23 67 -56 125 -75 127 -144 276 -185 398 -34 100 -34 100 -33 290 0 205 10
279 65 500 71 281 184 566 374 940 213 419 401 728 541 889 96 111 94 110 146
51 179 -208 370 -366 526 -437 147 -67 408 -105 797 -117 251 -8 430 -2 560
19 559 89 1181 392 1872 911 908 682 1375 1331 1489 2069 20 134 23 390 5 490
-50 279 -200 502 -449 668 -228 152 -470 228 -760 239 -159 6 -249 -3 -472
-49 -434 -89 -789 -211 -933 -321 -26 -21 -49 -37 -51 -37 -1 0 -6 51 -9 113
-11 210 -68 351 -159 396 -51 24 -90 25 -203 5z m1895 -539 c200 -46 328 -156
383 -330 19 -61 22 -91 21 -240 -2 -362 -80 -680 -250 -1017 -211 -416 -531
-774 -1030 -1150 -621 -468 -1168 -738 -1627 -803 -442 -63 -1126 79 -1325
275 -75 73 -97 127 -97 230 0 81 2 90 48 185 83 172 246 399 501 698 451 527
1436 1520 1771 1787 108 85 141 105 277 166 265 120 535 187 868 218 107 9
386 -2 460 -19z"/>
</g>
</svg>
